<?xml version="1.0" encoding="UTF-8"?>
<!DOCTYPE svg PUBLIC "-//W3C//DTD SVG 1.1//EN" "http://www.w3.org/Graphics/SVG/1.1/DTD/svg11.dtd">
<!-- Creator: CorelDRAW 2020 (64-Bit) -->
<svg xmlns="http://www.w3.org/2000/svg" xml:space="preserve" width="0.472441in" height="0.354331in" version="1.1" style="shape-rendering:geometricPrecision; text-rendering:geometricPrecision; image-rendering:optimizeQuality; fill-rule:evenodd; clip-rule:evenodd"
viewBox="0 0 472.44 354.33"
 xmlns:xlink="http://www.w3.org/1999/xlink"
 xmlns:xodm="http://www.corel.com/coreldraw/odm/2003">
 <defs>
  <style type="text/css">
   <![CDATA[
    .fil0 {fill:#E0F3FF;fill-rule:nonzero}
   ]]>
  </style>
 </defs>
 <g id="Слой_x0020_1">
  <metadata id="CorelCorpID_0Corel-Layer"/>
  <g id="_1853727347456">
   <g id="_1933205959136">
    <path class="fil0" d="M71.83 2.84l-0.04 0c-4.47,0 -8.67,1.71 -11.85,4.81 -3.2,3.15 -4.98,7.33 -4.98,11.78l0 248.86c0,9.13 7.59,16.57 16.93,16.59 39.35,0.09 105.28,8.15 150.76,54.87l0 -260.44c0,-3.09 -0.8,-6 -2.32,-8.41 -37.33,-59.01 -109.06,-67.98 -148.5,-68.07l0 0.01z"/>
    <path class="fil0" d="M416.59 268.3l0 -248.86c0,-4.45 -1.77,-8.64 -4.98,-11.78 -3.17,-3.11 -7.38,-4.81 -11.84,-4.81l-0.04 0c-39.44,0.09 -111.17,9.06 -148.5,68.07 -1.52,2.41 -2.32,5.31 -2.32,8.41l0 260.44c45.48,-46.72 111.41,-54.78 150.76,-54.87 9.33,-0.02 16.93,-7.46 16.93,-16.59l-0.01 -0.01z"/>
    <path class="fil0" d="M455.09 60.23l-12.26 0 0 208.07c0,23.3 -19.34,42.3 -43.11,42.36 -33.38,0.08 -88.41,6.48 -127.39,42.7 67.41,-16.2 138.48,-5.67 178.98,3.39 5.06,1.13 10.28,-0.04 14.33,-3.21 4.04,-3.16 6.35,-7.89 6.35,-12.96l0 -263.75c0,-9.15 -7.58,-16.59 -16.9,-16.59l0 -0.01z"/>
    <path class="fil0" d="M28.72 268.3l0 -208.07 -12.26 0c-9.32,0 -16.91,7.44 -16.91,16.59l0 263.74c0,5.07 2.32,9.8 6.35,12.96 4.05,3.17 9.27,4.34 14.33,3.21 40.5,-9.06 111.56,-19.6 178.97,-3.39 -38.98,-36.21 -94.01,-42.61 -127.39,-42.69 -23.77,-0.06 -43.11,-19.06 -43.11,-42.36l0.02 0.01z"/>
   </g>
  </g>
 </g>
</svg>
