<?xml version="1.0" encoding="UTF-8"?>
<!DOCTYPE svg PUBLIC "-//W3C//DTD SVG 1.1//EN" "http://www.w3.org/Graphics/SVG/1.1/DTD/svg11.dtd">
<!-- Creator: CorelDRAW 2020 (64-Bit) -->
<svg xmlns="http://www.w3.org/2000/svg" xml:space="preserve" width="0.472441in" height="0.472441in" version="1.1" style="shape-rendering:geometricPrecision; text-rendering:geometricPrecision; image-rendering:optimizeQuality; fill-rule:evenodd; clip-rule:evenodd"
viewBox="0 0 472.44 472.44"
 xmlns:xlink="http://www.w3.org/1999/xlink"
 xmlns:xodm="http://www.corel.com/coreldraw/odm/2003">
 <defs>
  <style type="text/css">
   <![CDATA[
    .fil0 {fill:#E0F3FF;fill-rule:nonzero}
   ]]>
  </style>
 </defs>
 <g id="Слой_x0020_1">
  <metadata id="CorelCorpID_0Corel-Layer"/>
  <g id="_1854105924192">
   <g id="_1933205942624">
    <path class="fil0" d="M235.76 0.44c32.62,0 59.05,26.44 59.05,59.06 0,32.61 -26.43,59.05 -59.05,59.05 -32.61,0 -59.05,-26.44 -59.05,-59.05 0,-32.61 26.44,-59.06 59.05,-59.06z"/>
    <path class="fil0" d="M324.22 279.07l-13.41 -104.41c-1.5,-15.15 -14.14,-26.58 -29.35,-26.58l-16.18 0c-3.93,0 -7.68,1.57 -10.45,4.31l-19.08 19.07 -19.07 -19.07c-2.78,-2.74 -6.53,-4.31 -10.46,-4.31l-16.15 0c-15.24,0 -27.88,11.43 -29.35,26.19l-13.43 104.81c-0.53,4.19 0.77,8.44 3.57,11.61 2.8,3.19 6.82,5.02 11.07,5.02l15.94 0 12.34 150.59c1.47,15.12 14.14,26.57 29.38,26.57l32.33 0c15.23,0 27.87,-11.46 29.41,-26.84l12.31 -150.33 15.92 0c4.25,0 8.26,-1.83 11.07,-5.02 2.83,-3.16 4.13,-7.41 3.57,-11.63l0.01 0.01z"/>
    <path class="fil0" d="M383.4 0.44c32.61,0 59.05,26.44 59.05,59.06 0,32.61 -26.44,59.05 -59.05,59.05 -32.62,0 -59.06,-26.44 -59.06,-59.05 0,-32.61 26.44,-59.06 59.06,-59.06z"/>
    <path class="fil0" d="M88.13 0.44c-32.57,0 -59.05,26.49 -59.05,59.06 0,32.57 26.48,59.05 59.05,59.05 32.54,0 59.05,-26.48 59.05,-59.05 0,-32.57 -26.52,-59.06 -59.05,-59.06z"/>
    <path class="fil0" d="M471.86 279.07l-13.41 -104.38c-1.5,-15.17 -14.11,-26.61 -29.35,-26.61l-16.19 0c-3.93,0 -7.67,1.57 -10.45,4.31l-19.07 19.07 -19.07 -19.07c-2.78,-2.74 -6.52,-4.31 -10.42,-4.31l-16.18 0c-1.83,0 -3.48,0.65 -5.23,0.98 3.81,6.73 6.79,14.02 7.68,22.2l13.38 104.06c1.65,12.67 -2.3,25.42 -10.81,35.02 -4.02,4.6 -9.15,7.85 -14.64,10.39l9.8 96.05c1.5,15.15 14.14,26.57 29.38,26.57l32.33 0c15.23,0 27.87,-11.46 29.41,-26.84l12.28 -120.8 15.91 0c4.25,0 8.26,-1.83 11.07,-5.02 2.83,-3.16 4.14,-7.41 3.57,-11.63l0.01 0.01z"/>
    <path class="fil0" d="M128.7 310.19c-8.39,-9.48 -12.28,-22.2 -10.69,-34.81l13.43 -104.85c0.77,-7.85 3.67,-14.94 7.36,-21.5 -1.66,-0.29 -3.22,-0.94 -4.96,-0.94l-16.18 0c-3.93,0 -7.68,1.57 -10.45,4.31l-19.07 19.07 -19.07 -19.07c-2.78,-2.75 -6.53,-4.31 -10.42,-4.31l-16.18 0c-15.24,0 -27.88,11.43 -29.35,26.19l-13.43 104.81c-0.53,4.19 0.77,8.45 3.57,11.61 2.8,3.19 6.85,5.02 11.07,5.02l15.94 0 12.34 121.06c1.47,15.12 14.14,26.57 29.38,26.57l32.33 0c15.24,0 27.87,-11.45 29.41,-26.83l9.8 -95.82c-5.52,-2.57 -10.69,-5.85 -14.82,-10.51l-0.01 -0z"/>
   </g>
  </g>
 </g>
</svg>
