<?xml version="1.0" encoding="UTF-8"?>
<!DOCTYPE svg PUBLIC "-//W3C//DTD SVG 1.1//EN" "http://www.w3.org/Graphics/SVG/1.1/DTD/svg11.dtd">
<!-- Creator: CorelDRAW 2020 (64-Bit) -->
<svg xmlns="http://www.w3.org/2000/svg" xml:space="preserve" width="0.472441in" height="0.433071in" version="1.1" style="shape-rendering:geometricPrecision; text-rendering:geometricPrecision; image-rendering:optimizeQuality; fill-rule:evenodd; clip-rule:evenodd"
viewBox="0 0 472.44 433.07"
 xmlns:xlink="http://www.w3.org/1999/xlink"
 xmlns:xodm="http://www.corel.com/coreldraw/odm/2003">
 <defs>
  <style type="text/css">
   <![CDATA[
    .fil0 {fill:#E0F3FF;fill-rule:nonzero}
   ]]>
  </style>
 </defs>
 <g id="Слой_x0020_1">
  <metadata id="CorelCorpID_0Corel-Layer"/>
  <g id="_1854106130832">
   <path class="fil0" d="M38.93 275.72l0 -236.22 393.7 0 0.02 236.22 -393.72 0zm196.85 59.11c-10.88,0 -19.74,-8.86 -19.74,-19.74 0,-10.88 8.86,-19.74 19.74,-19.74 10.89,0 19.74,8.86 19.74,19.74 0,10.88 -8.86,19.74 -19.74,19.74zm196.85 -334.7l-393.7 0c-21.7,0 -39.37,17.66 -39.37,39.37l0 275.59c0,21.71 17.67,39.37 39.37,39.37l137.84 0c-0.41,15.7 -3.41,40.82 -14.67,52.68 -4.13,4.35 -8.86,6.38 -14.9,6.38 -5.44,0 -9.84,4.4 -9.84,9.84 0,5.44 4.4,9.84 9.84,9.84l177.17 0c5.44,0 9.84,-4.41 9.84,-9.84 0,-5.44 -4.41,-9.84 -9.84,-9.84 -6.04,0 -10.77,-2.02 -14.88,-6.37 -11.23,-11.8 -14.25,-36.96 -14.68,-52.69l137.83 0c21.7,0 39.37,-17.66 39.37,-39.37l0 -275.59c0,-21.71 -17.67,-39.37 -39.37,-39.37l-0 -0z"/>
  </g>
 </g>
</svg>
