<?xml version="1.0" encoding="UTF-8"?>
<!DOCTYPE svg PUBLIC "-//W3C//DTD SVG 1.1//EN" "http://www.w3.org/Graphics/SVG/1.1/DTD/svg11.dtd">
<!-- Creator: CorelDRAW 2020 (64-Bit) -->
<svg xmlns="http://www.w3.org/2000/svg" xml:space="preserve" width="0.472441in" height="0.472441in" version="1.1" style="shape-rendering:geometricPrecision; text-rendering:geometricPrecision; image-rendering:optimizeQuality; fill-rule:evenodd; clip-rule:evenodd"
viewBox="0 0 472.44 472.44"
 xmlns:xlink="http://www.w3.org/1999/xlink"
 xmlns:xodm="http://www.corel.com/coreldraw/odm/2003">
 <defs>
  <style type="text/css">
   <![CDATA[
    .fil0 {fill:#E0F3FF;fill-rule:nonzero}
   ]]>
  </style>
 </defs>
 <g id="Слой_x0020_1">
  <metadata id="CorelCorpID_0Corel-Layer"/>
  <g id="_1854106093440">
   <g id="_1933366951040">
    <path class="fil0" d="M319.98 51.2l-14.91 -18.17 14.91 -18.17c3.24,-3.94 2.42,-9.57 -1.83,-12.58 -1.69,-1.2 -3.76,-1.84 -5.88,-1.84l-76.32 0c-5.38,-0.03 -9.78,3.97 -9.87,8.97l0 79.9 19.38 0 0 -23.62 66.81 0c5.36,-0.01 9.7,-4.06 9.69,-9.04 0,-1.97 -0.7,-3.87 -1.98,-5.44l0 -0.02z"/>
    <path class="fil0" d="M95.26 348.06c0,4.97 -4.34,9 -9.69,9 -5.35,0 -9.69,-4.03 -9.69,-9l0 -19.33c0,-4.97 4.34,-9 9.69,-9 5.35,0 9.69,4.03 9.69,9l0 19.33zm0 75.32c0,4.97 -4.34,9 -9.69,9 -5.35,0 -9.69,-4.03 -9.69,-9l0 -19.34c0,-4.97 4.34,-9 9.69,-9 5.35,0 9.69,4.03 9.69,9l0 19.34zm-49.67 -75.32c0,4.97 -4.34,9 -9.69,9 -5.35,0 -9.69,-4.03 -9.69,-9l0 -19.33c0,-4.97 4.34,-9 9.69,-9 5.35,0 9.69,4.03 9.69,9l0 19.33zm0 75.32c0,4.97 -4.34,9 -9.69,9 -5.35,0 -9.69,-4.03 -9.69,-9l0 -19.34c0,-4.97 4.34,-9 9.69,-9 5.35,0 9.69,4.03 9.69,9l0 19.34zm-31.66 -139.48c-7.9,-0.04 -14.33,5.87 -14.37,13.2l0 0.17 0 175.6 122.35 0 0 -188.97 -107.98 0z"/>
    <path class="fil0" d="M276.33 319.9l-83.85 0c-5.35,0 -9.69,-4.03 -9.69,-9 0,-4.97 4.34,-9 9.69,-9l83.85 0c5.35,0 9.69,4.03 9.69,9 0,4.97 -4.34,9 -9.69,9zm-42.11 -161.41l-92.93 73.4 0 241 42.4 0 0 -93.71c-0.13,-4.66 3.83,-8.53 8.85,-8.65 0.16,0 0.33,0 0.49,0l83.3 0c4.91,-0.11 9,3.49 9.12,8.05 0.01,0.2 0.01,0.4 -0.01,0.6l0 93.71 41.19 0 0 -241.07 -92.41 -73.32 0 -0z"/>
    <path class="fil0" d="M444.13 348.06c0,4.97 -4.34,9 -9.69,9 -5.35,0 -9.69,-4.03 -9.69,-9l0 -19.33c0,-4.97 4.34,-9 9.69,-9 5.35,0 9.69,4.03 9.69,9l0 19.33zm0 75.32c0,4.97 -4.34,9 -9.69,9 -5.35,0 -9.69,-4.03 -9.69,-9l0 -19.34c0,-4.97 4.34,-9 9.69,-9 5.35,0 9.69,4.03 9.69,9l0 19.34zm-48.46 -75.32c0,4.97 -4.34,9 -9.69,9 -5.35,0 -9.69,-4.03 -9.69,-9l0 -19.33c0,-4.97 4.34,-9 9.69,-9 5.35,0 9.69,4.03 9.69,9l0 19.33zm0 75.32c0,4.97 -4.34,9 -9.69,9 -5.35,0 -9.69,-4.03 -9.69,-9l0 -19.34c0,-4.97 4.34,-9 9.69,-9 5.35,0 9.69,4.03 9.69,9l0 19.34zm62.14 -139.48l-0.19 0 -111.61 0 0 188.97 125.98 0 0 -175.6c0.06,-7.33 -6.29,-13.32 -14.18,-13.37z"/>
    <path class="fil0" d="M234.69 101.5l-138.68 110.24 17.53 18.94 114.86 -90.89c3.63,-2.87 8.96,-2.87 12.59,0.01l114.38 90.91 17.93 -19.02 -138.61 -110.19 -0 -0z"/>
    <polygon class="fil0" points="203.07,388.51 266.06,388.51 266.06,472.88 203.07,472.88 "/>
   </g>
  </g>
 </g>
</svg>
