<?xml version="1.0" encoding="UTF-8"?>
<!DOCTYPE svg PUBLIC "-//W3C//DTD SVG 1.1//EN" "http://www.w3.org/Graphics/SVG/1.1/DTD/svg11.dtd">
<!-- Creator: CorelDRAW 2020 (64-Bit) -->
<svg xmlns="http://www.w3.org/2000/svg" xml:space="preserve" width="11.5748in" height="1.77165in" version="1.1" style="shape-rendering:geometricPrecision; text-rendering:geometricPrecision; image-rendering:optimizeQuality; fill-rule:evenodd; clip-rule:evenodd"
viewBox="0 0 11574.8 1771.65"
 xmlns:xlink="http://www.w3.org/1999/xlink"
 xmlns:xodm="http://www.corel.com/coreldraw/odm/2003">
 <defs>
  <style type="text/css">
   <![CDATA[
    .fil0 {fill:#075DA8}
    .fil1 {fill:white;fill-rule:nonzero}
   ]]>
  </style>
 </defs>
 <g id="Слой_x0020_1">
  <metadata id="CorelCorpID_0Corel-Layer"/>
  <g id="_1933203122832">
   <polygon class="fil0" points="2519.09,596.8 2027.87,596.8 2027.87,705.8 2341.45,705.8 2021.19,1088.14 2021.19,1174.85 2531.6,1174.85 2531.6,1065.84 2199.67,1065.84 2519.09,683.51 "/>
   <path class="fil0" d="M2960.26 949.41l-92.57 -221.31 -92.57 221.31 185.14 0zm-25.02 -352.61l-133.44 0 -260.2 578.06 138.44 0 51.71 -123.87 271.06 0 51.7 123.87 141.78 0 -261.04 -578.06z"/>
   <polygon class="fil0" points="3913.53,596.8 3802.6,596.8 3587.43,956.02 3368.92,596.8 3257.17,596.8 3257.17,1174.85 3383.93,1174.85 3383.93,835.45 3554.91,1113.74 3615.79,1113.74 3787.59,828.02 3788.42,1174.85 3915.19,1174.85 "/>
   <path class="fil0" d="M4172.47 625.7c-48.65,25.89 -86.74,61.52 -114.26,106.94l0 0c-27.52,45.41 -41.28,96.48 -41.28,153.18l0 0c0,56.7 13.76,107.76 41.28,153.19l0 0c27.52,45.42 65.61,81.07 114.26,106.94l0 0c48.65,25.89 103.27,38.81 163.88,38.81l0 0c60.6,0 115.09,-12.93 163.46,-38.81l0 0c48.37,-25.87 86.44,-61.52 114.25,-106.94l0 0c27.8,-45.42 41.7,-96.48 41.7,-153.19 0,-56.7 -13.9,-107.77 -41.7,-153.18l0 0c-27.81,-45.42 -65.88,-81.06 -114.25,-106.94l0 0c-48.37,-25.87 -102.87,-38.81 -163.46,-38.81 -60.61,0 -115.24,12.94 -163.88,38.81zm70.48 421.56c-27.81,-15.68 -49.63,-37.57 -65.47,-65.65l0 0c-15.85,-28.07 -23.77,-60 -23.77,-95.79l0 0c0,-35.78 7.93,-67.72 23.77,-95.78l0 0c15.84,-28.09 37.66,-49.96 65.47,-65.66l0 0c27.79,-15.69 58.93,-23.54 93.41,-23.54l0 0c34.46,0 65.6,7.85 93.41,23.54l0 0c27.79,15.7 49.62,37.57 65.47,65.66l0 0c15.85,28.07 23.77,60 23.77,95.78l0 0c0,35.79 -7.92,67.72 -23.77,95.79l0 0c-15.85,28.08 -37.68,49.96 -65.47,65.65l0 0c-27.8,15.69 -58.94,23.54 -93.41,23.54l0 0c-34.48,0 -65.61,-7.85 -93.41,-23.54l0 0z"/>
   <polygon class="fil0" points="5292.94,1174.85 5292.94,596.8 5159.51,596.8 5159.51,947.76 4869.27,596.8 4757.52,596.8 4757.52,1174.85 4890.96,1174.85 4890.96,823.89 5182.02,1174.85 "/>
   <path class="fil0" d="M5748.31 596.8l-133.44 0 -260.21 578.06 138.44 0 51.7 -123.87 271.06 0 51.7 123.87 141.78 0 -261.04 -578.06zm-67.56 131.3l92.57 221.31 -185.14 0 92.57 -221.31z"/>
   <polygon class="fil0" points="6599.82,596.8 6465.55,596.8 6285.4,1009.69 6107.76,596.8 5961.8,596.8 6213.67,1174.85 6347.11,1174.85 "/>
   <polygon class="fil0" points="6783.29,1174.85 6783.29,596.8 6648.19,596.8 6648.19,1174.85 "/>
   <polygon class="fil0" points="7428.8,596.8 7296.19,596.8 7140.23,853.62 6984.27,596.8 6840.83,596.8 7066.84,968.41 7066.84,1174.85 7201.94,1174.85 7201.94,970.05 "/>
   <polygon class="fil0" points="8445.53,596.79 8334.61,596.79 8119.43,956.01 7900.93,596.79 7789.18,596.79 7789.18,1174.85 7915.94,1174.85 7915.94,835.44 8086.91,1113.74 8147.79,1113.74 8319.6,828.01 8320.42,1174.85 8447.2,1174.85 "/>
   <path class="fil0" d="M8902.55 596.79l-133.44 0 -260.22 578.06 138.45 0 51.71 -123.87 271.05 0 51.71 123.87 141.78 0 -261.04 -578.06zm-67.55 131.3l92.57 221.31 -185.15 0 92.58 -221.31z"/>
   <polygon class="fil0" points="9767.4,596.79 9617.28,596.79 9358.74,866.83 9358.74,596.79 9224.46,596.79 9224.46,1174.85 9358.74,1174.85 9358.74,1028.68 9437.13,947.75 9623.95,1174.85 9781.57,1174.85 9525.54,854.44 "/>
   <polygon class="fil0" points="10357.17,596.79 9848.43,596.79 9848.43,705.8 10035.24,705.8 10035.24,1174.85 10170.36,1174.85 10170.36,705.8 10357.17,705.8 "/>
   <path class="fil0" d="M10717.46 596.79l-133.44 0 -260.21 578.06 138.44 0 51.71 -123.87 271.05 0 51.71 123.87 141.78 0 -261.04 -578.06zm-67.55 131.3l92.57 221.31 -185.15 0 92.58 -221.31z"/>
   <path class="fil0" d="M11324.61 596.79l-285.22 0 0 578.06 301.91 0c76.17,0 134.14,-13.63 173.89,-40.88l0 0c39.75,-27.25 59.63,-66.19 59.63,-116.85l0 0c0,-35.78 -9.46,-65.92 -28.35,-90.42l0 0c-18.91,-24.48 -45.04,-41.98 -78.4,-52.44l0 0c24.46,-12.66 43.5,-30 57.13,-52.02l0 0c13.61,-22.01 20.43,-47.07 20.43,-75.15l0 0c0,-46.24 -19.06,-82.85 -57.13,-109.83l0 0c-38.09,-26.96 -92.72,-40.46 -163.88,-40.46zm-150.95 100.74l134.28 0c33.36,0 58.65,5.66 75.89,16.93l0 0c17.24,11.28 25.86,28.22 25.86,50.79l0 0c0,22.57 -8.63,39.63 -25.86,51.19l0 0c-17.24,11.56 -42.53,17.34 -75.89,17.34l0 0 -134.28 0 0 -136.25zm0 233.7l157.63 0c71.72,0 107.59,23.95 107.59,71.85l0 0c0,24.23 -9.05,42.11 -27.1,53.68l0 0c-18.07,11.56 -44.91,17.34 -80.48,17.34l0 0 -157.63 0 0 -142.87z"/>
   <g>
    <path class="fil0" d="M357.52 497.26l-333.2 329.92c-32.43,32.11 -32.43,84.18 0,116.29l0 0 333.2 329.92c32.43,32.11 85.02,32.11 117.45,0l0 0 391.92 -388.06 -391.92 -388.06c-16.22,-16.06 -37.47,-24.08 -58.72,-24.08 -21.25,0 -42.51,8.03 -58.72,24.08l0 0z"/>
    <path class="fil0" d="M1312.5 496.65l-392.54 388.67 392.54 388.68c32.09,31.78 84.12,31.78 116.21,0l0 0 334.43 -331.14c32.09,-31.78 32.09,-83.3 0,-115.07l0 0 -334.43 -331.14c-16.04,-15.89 -37.07,-23.83 -58.1,-23.83 -21.03,0 -42.06,7.94 -58.11,23.83l0 0z"/>
    <path class="fil0" d="M835.89 23.6l-335.57 332.27c-31.78,31.46 -31.78,82.48 0,113.94l0 0 393.11 389.24 393.11 -389.24c31.78,-31.46 31.78,-82.47 0,-113.94l0 0 -335.57 -332.27c-15.89,-15.73 -36.71,-23.6 -57.53,-23.6 -20.83,0 -41.65,7.87 -57.54,23.6l0 0z"/>
    <path class="fil0" d="M499.69 1302.11c-31.42,31.11 -31.42,81.56 0,112.68l0 0 336.85 333.53c31.43,31.12 82.37,31.12 113.8,0l0 0 336.85 -333.53c31.42,-31.12 31.42,-81.56 0,-112.68l0 0 -393.75 -389.87 -393.74 389.87z"/>
    <g>
     <path class="fil1" d="M769.86 271.9l-0.03 0c-3.45,0 -6.7,1.33 -9.15,3.75 -2.48,2.45 -3.84,5.71 -3.84,9.17l0 193.8c0,7.11 5.86,12.91 13.07,12.92 30.38,0.07 81.28,6.35 116.4,42.73l0 -202.82c0,-2.41 -0.62,-4.67 -1.8,-6.54 -28.82,-45.96 -84.2,-52.94 -114.65,-53.01z"/>
     <path class="fil1" d="M1036.04 478.62l0 -193.8c0,-3.47 -1.37,-6.72 -3.84,-9.17 -2.45,-2.42 -5.7,-3.75 -9.14,-3.75l-0.03 0c-30.45,0.07 -85.83,7.06 -114.66,53.01 -1.17,1.87 -1.79,4.14 -1.79,6.55l0 202.81c35.11,-36.39 86.02,-42.65 116.4,-42.73 7.2,-0.02 13.07,-5.81 13.07,-12.92z"/>
     <path class="fil1" d="M1065.77 316.59l-9.46 0 0 162.03c0,18.15 -14.93,32.94 -33.28,32.98 -25.77,0.06 -68.26,5.05 -98.35,33.25 52.04,-12.62 106.91,-4.41 138.18,2.64 3.9,0.88 7.94,-0.03 11.07,-2.5 3.12,-2.46 4.91,-6.14 4.91,-10.09l0 -205.39c0,-7.13 -5.86,-12.92 -13.05,-12.92z"/>
     <path class="fil1" d="M736.57 478.62l0 -162.03 -9.46 0c-7.19,0 -13.05,5.8 -13.05,12.92l0 205.39c0,3.95 1.79,7.63 4.91,10.09 3.13,2.47 7.16,3.38 11.07,2.5 31.27,-7.06 86.13,-15.26 138.18,-2.64 -30.09,-28.2 -72.58,-33.19 -98.35,-33.25 -18.35,-0.04 -33.28,-14.84 -33.28,-32.98z"/>
    </g>
    <path class="fil1" d="M279.8 939.35l0 -162.12 272.89 0 0.01 162.12 -272.9 0zm136.44 40.57c-7.54,0 -13.69,-6.08 -13.69,-13.55 0,-7.46 6.14,-13.55 13.69,-13.55 7.54,0 13.69,6.08 13.69,13.55 0,7.47 -6.14,13.55 -13.69,13.55zm136.44 -229.71l-272.89 0c-15.04,0 -27.29,12.12 -27.29,27.02l0 189.15c0,14.9 12.24,27.02 27.29,27.02l95.54 0c-0.29,10.78 -2.37,28.02 -10.17,36.15 -2.86,2.98 -6.14,4.38 -10.33,4.38 -3.77,0 -6.82,3.02 -6.82,6.75 0,3.73 3.05,6.76 6.82,6.76l122.8 0c3.77,0 6.82,-3.02 6.82,-6.76 0,-3.73 -3.06,-6.75 -6.82,-6.75 -4.19,0 -7.46,-1.39 -10.31,-4.37 -7.79,-8.1 -9.88,-25.36 -10.18,-36.16l95.54 0c15.04,0 27.29,-12.12 27.29,-27.02l0 -189.15c0,-14.9 -12.24,-27.02 -27.29,-27.02z"/>
    <g>
     <path class="fil1" d="M953.01 1184.27l-10.55 -13.71 10.55 -13.71c2.29,-2.98 1.71,-7.22 -1.29,-9.49 -1.2,-0.91 -2.66,-1.39 -4.16,-1.39l-54 0c-3.81,-0.02 -6.93,3 -6.99,6.76l0 60.28 13.71 0 0 -17.82 47.27 0c3.79,-0.01 6.86,-3.06 6.85,-6.82 -0,-1.48 -0.5,-2.92 -1.4,-4.1z"/>
     <path class="fil1" d="M794.01 1408.24c0,3.75 -3.07,6.79 -6.85,6.79 -3.79,0 -6.86,-3.04 -6.86,-6.79l0 -14.59c0,-3.75 3.07,-6.79 6.86,-6.79 3.78,0 6.85,3.04 6.85,6.79l0 14.59zm0 56.83c0,3.75 -3.07,6.79 -6.85,6.79 -3.79,0 -6.86,-3.04 -6.86,-6.79l0 -14.59c0,-3.75 3.07,-6.79 6.86,-6.79 3.78,0 6.85,3.04 6.85,6.79l0 14.59zm-35.14 -56.83c0,3.75 -3.07,6.79 -6.85,6.79 -3.79,0 -6.86,-3.04 -6.86,-6.79l0 -14.59c0,-3.75 3.07,-6.79 6.86,-6.79 3.78,0 6.85,3.04 6.85,6.79l0 14.59zm0 56.83c0,3.75 -3.07,6.79 -6.85,6.79 -3.79,0 -6.86,-3.04 -6.86,-6.79l0 -14.59c0,-3.75 3.07,-6.79 6.86,-6.79 3.78,0 6.85,3.04 6.85,6.79l0 14.59zm-22.4 -105.23c-5.59,-0.03 -10.13,4.43 -10.17,9.96l0 0.13 0 132.48 86.57 0 0 -142.57 -76.4 0z"/>
     <path class="fil1" d="M922.13 1386.99l-59.33 0c-3.79,0 -6.86,-3.04 -6.86,-6.79 0,-3.75 3.07,-6.79 6.86,-6.79l59.33 0c3.78,0 6.85,3.04 6.85,6.79 0,3.75 -3.07,6.79 -6.85,6.79zm-29.8 -121.78l-65.75 55.38 0 181.82 30 0 0 -70.7c-0.09,-3.52 2.71,-6.44 6.26,-6.53 0.11,0 0.23,0 0.35,0l58.94 0c3.48,-0.09 6.36,2.63 6.45,6.07 0,0.15 0,0.3 -0,0.45l0 70.7 29.14 0 0 -181.89 -65.39 -55.31z"/>
     <path class="fil1" d="M1040.85 1408.24c0,3.75 -3.07,6.79 -6.86,6.79 -3.79,0 -6.85,-3.04 -6.85,-6.79l0 -14.59c0,-3.75 3.07,-6.79 6.85,-6.79 3.79,0 6.86,3.04 6.86,6.79l0 14.59zm0 56.83c0,3.75 -3.07,6.79 -6.86,6.79 -3.79,0 -6.85,-3.04 -6.85,-6.79l0 -14.59c0,-3.75 3.07,-6.79 6.85,-6.79 3.79,0 6.86,3.04 6.86,6.79l0 14.59zm-34.28 -56.83c0,3.75 -3.07,6.79 -6.86,6.79 -3.78,0 -6.86,-3.04 -6.86,-6.79l0 -14.59c0,-3.75 3.07,-6.79 6.86,-6.79 3.79,0 6.86,3.04 6.86,6.79l0 14.59zm0 56.83c0,3.75 -3.07,6.79 -6.86,6.79 -3.78,0 -6.86,-3.04 -6.86,-6.79l0 -14.59c0,-3.75 3.07,-6.79 6.86,-6.79 3.79,0 6.86,3.04 6.86,6.79l0 14.59zm43.96 -105.23l-0.13 0 -78.97 0 0 142.57 89.14 0 0 -132.48c0.04,-5.53 -4.45,-10.05 -10.04,-10.09z"/>
     <path class="fil1" d="M892.66 1222.21l-98.12 83.18 12.4 14.29 81.27 -68.57c2.57,-2.17 6.35,-2.16 8.91,0.01l80.93 68.59 12.69 -14.35 -98.07 -83.14z"/>
     <polygon class="fil1" points="870.29,1438.75 914.86,1438.75 914.86,1502.4 870.29,1502.4 "/>
    </g>
    <g>
     <path class="fil1" d="M1370.61 738.99c19.21,0 34.79,16.45 34.79,36.74 0,20.29 -15.57,36.74 -34.79,36.74 -19.21,0 -34.79,-16.45 -34.79,-36.74 0,-20.29 15.57,-36.74 34.79,-36.74z"/>
     <path class="fil1" d="M1422.72 912.34l-7.9 -64.96c-0.89,-9.42 -8.33,-16.54 -17.29,-16.54l-9.53 0c-2.31,0 -4.52,0.98 -6.16,2.69l-11.24 11.87 -11.24 -11.87c-1.64,-1.71 -3.85,-2.69 -6.16,-2.69l-9.52 0c-8.97,0 -16.42,7.11 -17.29,16.3l-7.91 65.22c-0.31,2.61 0.45,5.26 2.11,7.22 1.65,1.98 4.02,3.12 6.52,3.12l9.39 0 7.27 93.69c0.87,9.41 8.33,16.53 17.31,16.53l19.05 0c8.97,0 16.42,-7.13 17.32,-16.7l7.25 -93.53 9.38 0c2.5,0 4.87,-1.14 6.52,-3.12 1.67,-1.97 2.44,-4.61 2.11,-7.24z"/>
     <path class="fil1" d="M1457.58 738.99c19.21,0 34.78,16.45 34.78,36.74 0,20.29 -15.57,36.74 -34.78,36.74 -19.22,0 -34.79,-16.45 -34.79,-36.74 0,-20.29 15.57,-36.74 34.79,-36.74z"/>
     <path class="fil1" d="M1283.64 738.99c-19.19,0 -34.79,16.48 -34.79,36.74 0,20.26 15.6,36.74 34.79,36.74 19.17,0 34.78,-16.48 34.78,-36.74 0,-20.26 -15.62,-36.74 -34.78,-36.74z"/>
     <path class="fil1" d="M1509.69 912.34l-7.9 -64.94c-0.89,-9.44 -8.31,-16.56 -17.29,-16.56l-9.53 0c-2.31,0 -4.52,0.98 -6.16,2.69l-11.23 11.87 -11.24 -11.87c-1.64,-1.71 -3.85,-2.69 -6.14,-2.69l-9.53 0c-1.08,0 -2.05,0.41 -3.08,0.61 2.24,4.19 4,8.72 4.52,13.81l7.88 64.74c0.97,7.88 -1.35,15.81 -6.37,21.79 -2.37,2.86 -5.39,4.89 -8.63,6.46l5.78 59.76c0.89,9.42 8.33,16.53 17.31,16.53l19.04 0c8.98,0 16.42,-7.13 17.32,-16.7l7.24 -75.16 9.38 0c2.5,0 4.87,-1.14 6.52,-3.12 1.67,-1.97 2.44,-4.61 2.11,-7.24z"/>
     <path class="fil1" d="M1307.54 931.7c-4.94,-5.89 -7.24,-13.81 -6.3,-21.66l7.91 -65.24c0.45,-4.89 2.16,-9.3 4.33,-13.37 -0.98,-0.19 -1.9,-0.59 -2.92,-0.59l-9.53 0c-2.31,0 -4.52,0.98 -6.16,2.69l-11.24 11.87 -11.24 -11.87c-1.63,-1.71 -3.84,-2.69 -6.14,-2.69l-9.53 0c-8.98,0 -16.42,7.11 -17.29,16.3l-7.91 65.22c-0.31,2.61 0.45,5.26 2.11,7.22 1.65,1.98 4.04,3.12 6.52,3.12l9.39 0 7.27 75.32c0.87,9.41 8.33,16.53 17.31,16.53l19.05 0c8.98,0 16.42,-7.13 17.32,-16.7l5.77 -59.62c-3.25,-1.6 -6.3,-3.64 -8.73,-6.54z"/>
    </g>
   </g>
  </g>
 </g>
</svg>
