<svg id="Слой_1" data-name="Слой 1" xmlns="http://www.w3.org/2000/svg" viewBox="0 0 986.67 986.67"><defs><style>.cls-1{fill:#fff;}</style></defs><path class="cls-1" d="M598.71,202.38l-18.65-24.49,18.65-24.49A12.1,12.1,0,0,0,589.07,134H493.56a12.28,12.28,0,0,0-12.35,12.08V253.72h24.25V221.89h83.61a12.15,12.15,0,0,0,9.64-19.51Z"/><path class="cls-1" d="M215.71,516a17.88,17.88,0,0,0-18,17.79V770.65H350.84V516Zm39.63,188a12.13,12.13,0,0,1-24.26,0V677.89a12.13,12.13,0,0,1,24.26,0Zm0-101.5a12.13,12.13,0,0,1-24.26,0V576.38a12.13,12.13,0,0,1,24.26,0ZM317.49,704a12.13,12.13,0,0,1-24.26,0V677.89a12.13,12.13,0,0,1,24.26,0Zm0-101.5a12.13,12.13,0,0,1-24.26,0V576.38a12.13,12.13,0,0,1,24.26,0Z"/><path class="cls-1" d="M491.38,347,375.09,445.87V770.65h53.06V644.36a11.37,11.37,0,0,1,11.07-11.66H544.08a11.13,11.13,0,0,1,11.41,10.85q0,.41,0,.81V770.65H607V445.76Zm52.7,217.53H439.15a12.13,12.13,0,0,1,0-24.25H544.08a12.13,12.13,0,1,1,0,24.25Z"/><path class="cls-1" d="M771.19,516H631.28V770.65H788.93V534A17.87,17.87,0,0,0,771.19,516ZM693.43,704a12.13,12.13,0,0,1-24.25,0V677.89a12.13,12.13,0,1,1,24.25,0Zm0-101.5a12.13,12.13,0,0,1-24.25,0V576.38a12.13,12.13,0,0,1,24.25,0ZM754.07,704a12.13,12.13,0,0,1-24.26,0V677.89a12.13,12.13,0,1,1,24.26,0Zm0-101.5a12.13,12.13,0,0,1-24.26,0V576.38a12.13,12.13,0,0,1,24.26,0Z"/><path class="cls-1" d="M492,270.15,318.42,418.72l21.94,25.52L484.1,321.77a12.12,12.12,0,0,1,15.75,0L643,444.29l22.43-25.64Z"/><rect class="cls-1" x="452.4" y="656.95" width="78.83" height="113.69"/></svg>