<svg id="Слой_1" data-name="Слой 1" xmlns="http://www.w3.org/2000/svg" viewBox="0 0 986.67 986.67"><defs><style>.cls-1{fill:#fff;}</style></defs><path class="cls-1" d="M733.34,213.53h-480a48.06,48.06,0,0,0-48,48v336a48.06,48.06,0,0,0,48,48H421.38c-.5,19.15-4.16,49.78-17.89,64.24a23.6,23.6,0,0,1-18.16,7.77,12,12,0,1,0,0,24h216a12,12,0,1,0,0-24,23.47,23.47,0,0,1-18.14-7.76c-13.7-14.39-17.38-45.06-17.9-64.25h168a48.05,48.05,0,0,0,48-48v-336A48.06,48.06,0,0,0,733.34,213.53Zm-240,408.09a24.07,24.07,0,1,1,24.07-24.07A24.11,24.11,0,0,1,493.33,621.62Zm-240-72.07v-288h480l0,288Z"/></svg>