<svg id="Слой_1" data-name="Слой 1" xmlns="http://www.w3.org/2000/svg" viewBox="0 0 986.67 986.67" fill="#E0F3FF"><defs><style>.cls-1{fill:#E0F3FF;}</style></defs><path class="cls-1" d="M277.08,255.29H277a22.24,22.24,0,0,0-22.18,22.3V612a22.37,22.37,0,0,0,22.32,22.29c51.91.13,138.87,11,198.86,73.73V358.05a21.44,21.44,0,0,0-3.06-11.3C423.72,267.46,329.1,255.41,277.08,255.29Z"/><path class="cls-1" d="M731.83,612V277.59a22.2,22.2,0,0,0-6.56-15.83,22,22,0,0,0-15.62-6.47h-.06c-52,.12-146.64,12.17-195.88,91.46a21.44,21.44,0,0,0-3.06,11.3V708c60-62.78,147-73.59,198.86-73.72A22.37,22.37,0,0,0,731.83,612Z"/><path class="cls-1" d="M782.62,332.4H766.45V612a57,57,0,0,1-56.86,56.91c-44,.11-116.62,8.72-168,57.38,88.91-21.77,182.65-7.62,236.07,4.55a22.3,22.3,0,0,0,27.29-21.72V354.7A22.33,22.33,0,0,0,782.62,332.4Z"/><path class="cls-1" d="M220.21,612V332.4H204.05a22.32,22.32,0,0,0-22.3,22.3V709.08A22.3,22.3,0,0,0,209,730.81c53.42-12.18,147.16-26.33,236.07-4.56-51.41-48.66-124-57.26-168-57.37A57,57,0,0,1,220.21,612Z"/></svg>