<svg fill="#E0F3FF" id="Слой_1" data-name="Слой 1" xmlns="http://www.w3.org/2000/svg" viewBox="0 0 986.67 986.67"><defs><style>.cls-1{fill:#fff;}</style></defs><ellipse class="cls-1" cx="493.33" cy="315.42" rx="55.6" ry="59.31"/><path class="cls-1" d="M576.61,535.92,564,431.06c-1.41-15.21-13.31-26.69-27.63-26.69H521.13a13.59,13.59,0,0,0-9.84,4.33l-18,19.16-18-19.16a13.59,13.59,0,0,0-9.84-4.33H450.32c-14.34,0-26.24,11.48-27.63,26.31L410,535.94a15.46,15.46,0,0,0,3.37,11.66,13.51,13.51,0,0,0,10.42,5h15l11.62,151.23c1.39,15.18,13.32,26.69,27.66,26.69h30.44c14.35,0,26.24-11.51,27.69-27l11.59-151h15a13.51,13.51,0,0,0,10.42-5A15.24,15.24,0,0,0,576.61,535.92Z"/><ellipse class="cls-1" cx="632.32" cy="315.42" rx="55.6" ry="59.31"/><path class="cls-1" d="M354.33,256.11c-30.66,0-55.6,26.6-55.6,59.31s24.94,59.3,55.6,59.3,55.6-26.6,55.6-59.3S385,256.11,354.33,256.11Z"/><path class="cls-1" d="M715.61,535.92,703,431.09c-1.42-15.24-13.29-26.72-27.63-26.72H660.12a13.62,13.62,0,0,0-9.84,4.33l-18,19.16-18-19.16a13.61,13.61,0,0,0-9.82-4.33H589.32a25.52,25.52,0,0,0-4.92,1,60.55,60.55,0,0,1,7.23,22.3l12.59,104.5A46.35,46.35,0,0,1,594,567.32a40.49,40.49,0,0,1-13.78,10.44l9.23,96.46c1.41,15.21,13.31,26.68,27.66,26.68h30.44c14.34,0,26.24-11.5,27.68-26.95l11.57-121.31h15a13.53,13.53,0,0,0,10.43-5A15.24,15.24,0,0,0,715.61,535.92Z"/><path class="cls-1" d="M392.53,567.17a46.36,46.36,0,0,1-10.06-35l12.64-105.3c.73-7.89,3.45-15,6.93-21.59-1.56-.29-3-.95-4.67-.95H382.13a13.59,13.59,0,0,0-9.84,4.33l-18,19.16-18-19.16a13.57,13.57,0,0,0-9.81-4.33H311.33c-14.35,0-26.25,11.48-27.64,26.31L271.05,535.94a15.46,15.46,0,0,0,3.36,11.66,13.55,13.55,0,0,0,10.42,5h15l11.62,121.58c1.39,15.18,13.31,26.68,27.66,26.68h30.44c14.34,0,26.24-11.5,27.68-26.95l9.23-96.22A42,42,0,0,1,392.53,567.17Z"/></svg>